<?xml version="1.0" encoding="utf-8"?>
<svg id="master-artboard" viewBox="0 0 607.2024536132812 224.07675170898438" version="1.1" xmlns="http://www.w3.org/2000/svg" x="0px" y="0px" style="enable-background:new 0 0 336 235.2;" width="607.2024536132812px" height="224.07675170898438px" xmlns:xlink="http://www.w3.org/1999/xlink"><rect id="ee-background" x="0" y="0" width="607.2024536132812" height="224.07675170898438" style="fill: white; fill-opacity: 0; pointer-events: none;"/><g transform="matrix(1.2760416269302368, 0, 0, 1.2760416269302368, -356.11419105529785, -375.8342590332031)"><metadata id="metadata112783">
    
  </metadata><linearGradient spreadMethod="pad" y2="30%" x2="-10%" y1="120%" x1="30%" id="3d_gradient2-logo-7f120098-f03c-43b8-94fd-9d44905aa5ea">
    <stop id="stop112758" stop-opacity="1" stop-color="#ffffff" offset="0%"/>
    <stop id="stop112760" stop-opacity="1" stop-color="#000000" offset="100%"/>
  </linearGradient><linearGradient gradientTransform="rotate(-30)" spreadMethod="pad" y2="30%" x2="-10%" y1="120%" x1="30%" id="3d_gradient3-logo-7f120098-f03c-43b8-94fd-9d44905aa5ea">
    <stop id="stop112763" stop-opacity="1" stop-color="#ffffff" offset="0%"/>
    <stop id="stop112765" stop-opacity="1" stop-color="#cccccc" offset="50%"/>
    <stop id="stop112767" stop-opacity="1" stop-color="#000000" offset="100%"/>
  </linearGradient><g id="logo-group">
    <image id="container" x="272" y="144" width="480" height="480" style="display: none;" transform="translate(0 0)" xlink:href=""/>
    <g id="logo-center" transform="translate(0 0)">
      <image id="icon_container" style="display: none;" x="0" y="0" xlink:href=""/>
      <g id="slogan" style="font-style:oblique;font-weight:700;font-size:32px;line-height:1;font-family:Lato;font-variant-ligatures:none;text-align:center;text-anchor:middle" transform="translate(0 0)"/>
      <g id="title" style="font-style:normal;font-weight:300;font-size:72px;line-height:1;font-family:'Montserrat Light Alt1';font-variant-ligatures:none;text-align:center;text-anchor:middle" transform="translate(0 0)">
        <path id="path112786" style="font-style:normal;font-weight:300;font-size:72px;line-height:1;font-family:'Montserrat Light Alt1';font-variant-ligatures:none;text-align:center;text-anchor:middle" d="m 444.57537,-50.4 h -3.672 L 417.71938,0 h 3.95999 l 21.024,-46.368 21.096,46.368 h 3.96 z" stroke-width="0" stroke-linejoin="miter" stroke-miterlimit="2" fill="#1259e8" stroke="#1259e8" transform="translate(0 329.14) translate(284.9370374999999 -25.6) scale(2.5) translate(-417.71938 50.4)"/>
        <path id="path112788" style="font-style:normal;font-weight:300;font-size:72px;line-height:1;font-family:'Montserrat Light Alt1';font-variant-ligatures:none;text-align:center;text-anchor:middle" d="m 508.74313,-37.584 h -3.52801 v 8.856 c -1.512,-2.88 -3.6,-5.184 -6.264,-6.768 -2.736,-1.584 -5.76,-2.376 -9.144,-2.376 -3.52799,0 -6.69599,0.864 -9.50399,2.448 -2.88,1.656 -5.11201,3.888 -6.69601,6.768 -1.584,2.88 -2.37599,6.192 -2.37599,9.864 0,3.744 0.79199,7.056 2.37599,9.936 1.584,2.88 3.81601,5.184 6.69601,6.768 2.808,1.584 5.976,2.376 9.50399,2.376 3.312,0 6.336,-0.792 9,-2.376 2.66401,-1.584 4.752,-3.744 6.336,-6.624 v 22.68 h 3.60001 z m -11.01601,32.616 c -2.30399,1.368 -4.824,2.016 -7.704,2.016 -2.88,0 -5.47199,-0.648 -7.776,-2.016 -2.304,-1.296 -4.104,-3.168 -5.4,-5.616 -1.29599,-2.376 -1.944,-5.112 -1.944,-8.208 0,-3.024 0.64801,-5.76 1.944,-8.208 1.296,-2.376 3.096,-4.248 5.4,-5.616 2.30401,-1.296 4.896,-2.016 7.776,-2.016 2.88,0 5.40001,0.72 7.704,2.016 2.304,1.368 4.104,3.24 5.4,5.616 1.29601,2.448 2.016,5.184 2.016,8.208 0,3.096 -0.71999,5.832 -2.016,8.208 -1.296,2.448 -3.096,4.32 -5.4,5.616 z" stroke-width="0" stroke-linejoin="miter" stroke-miterlimit="2" fill="#1378e0" stroke="#1378e0" transform="translate(0 329.14) translate(418.7164125 5.719999999999992) scale(2.5) translate(-471.23113 37.872)"/>
        <path id="path112790" style="font-style:normal;font-weight:300;font-size:72px;line-height:1;font-family:'Montserrat Light Alt1';font-variant-ligatures:none;text-align:center;text-anchor:middle" d="m 556.89538,-37.584 h -3.6 v 20.016 c 0,4.464 -1.29601,8.064 -3.74401,10.656 -2.44799,2.664 -5.83199,3.96 -10.008,3.96 -3.95999,0 -6.98399,-1.08 -9.144,-3.312 -2.16,-2.16 -3.24,-5.4 -3.24,-9.648 v -21.672 h -3.59999 v 21.96 c 0,5.184 1.36799,9.072 4.17599,11.808 2.736,2.736 6.624,4.104 11.52,4.104 3.312,0 6.192,-0.72 8.64001,-2.16 2.448,-1.44 4.24799,-3.528 5.544,-6.192 V 0 h 3.456 z" stroke-width="0" stroke-linejoin="miter" stroke-miterlimit="2" fill="#1397d8" stroke="#1397d8" transform="translate(0 329.14) translate(549.5370375000001 6.439999999999991) scale(2.5) translate(-523.55938 37.584)"/>
        <path id="path112792" style="font-style:normal;font-weight:300;font-size:72px;line-height:1;font-family:'Montserrat Light Alt1';font-variant-ligatures:none;text-align:center;text-anchor:middle" d="m 595.62575,-34.272 c -2.52,-2.376 -6.12,-3.6 -10.728,-3.6 -2.88,0 -5.688,0.504 -8.28,1.44 -2.664,0.936 -4.896,2.232 -6.768,3.888 l 1.8,2.592 c 1.584,-1.44 3.456,-2.592 5.76,-3.456 2.304,-0.864 4.68,-1.296 7.2,-1.296 3.6,0 6.408,0.936 8.28,2.736 1.872,1.872 2.88,4.536 2.88,7.992 v 3.024 h -12.888 c -4.896,0 -8.496,1.008 -10.728,2.952 -2.232,1.944 -3.312,4.464 -3.312,7.56 0,3.24 1.152,5.832 3.6,7.776 2.448,2.016 5.76,2.952 9.936,2.952 3.168,0 5.976,-0.576 8.28,-1.8 2.304,-1.224 4.032,-2.952 5.256,-5.184 V 0 h 3.456 v -23.832 c 0,-4.608 -1.296,-8.064 -3.744,-10.44 z m -4.824,29.448 c -2.16,1.44 -4.824,2.16 -7.92,2.16 -3.312,0 -5.904,-0.648 -7.704,-2.088 -1.872,-1.44 -2.736,-3.384 -2.736,-5.832 0,-2.304 0.792,-4.176 2.448,-5.544 1.656,-1.296 4.32,-2.016 8.064,-2.016 h 12.816 v 7.056 c -1.152,2.736 -2.808,4.824 -4.968,6.264 z" stroke-width="0" stroke-linejoin="miter" stroke-miterlimit="2" fill="#14b6d0" stroke="#14b6d0" transform="translate(0 329.14) translate(662.7429625000002 5.719999999999992) scale(2.5) translate(-568.84175 37.872)"/>
      </g>
      <image id="icon" style="display: none;" x="0" y="0" xlink:href=""/>
    </g>
  </g></g></svg>